# xmcd
# 
# Track frame offsets:
#     150
#     18533
#     32896
#     47866
#     62427
#     75766
#     88772
#     100763
#     117033
#     134405
#     151786
#     167564
#     182991
#     202428
#     215903
#     229557
#     251752
#     266877
#     283896
#     298150
#     312381
# 
# Disc length: 4379
# 
# Revision: 1
# Processed by: cddbd v1.5.2PL0 Copyright (c) Steve Scherf et al.
# Submitted via: fre:ac v1.0.17
# 
DISCID=3b111915
DTITLE=Συλλογικός δίσκος - Το νησιώτικο τραγούδι είναι εδώ 1
DYEAR=0
DGENRE=Παραδοσιακή
TTITLE0=Χατζόπουλος Σταμάτης - Μεσοπέλαγα [μουσ. στ. Στ. Χατζόπουλος]
TTITLE1=Χατζόπουλος Σταμάτης - Θυμάσαι πού 'μαστε παιδιά [μουσ. στ. Στ. Χατζόπουλος]
TTITLE2=Χατζόπουλος Σταμάτης - Φλόγα και φωτιά [μουσ. στ. Στ. Χατζόπουλος]
TTITLE3=Χατζόπουλος Σταμάτης - Είσαι αγάπη και θρησκεία [μουσ. στ. Στ. Χατζόπουλος]
TTITLE4=Χατζόπουλος Σταμάτης - Πες μου πως με θες [μουσ. στ. Στ. Χατζόπουλος]
TTITLE5=Χατζόπουλος Σταμάτης - Περνώ κανάλι [μουσ. στ. Στ. Χατζόπουλος]
TTITLE6=Χατζόπουλος Σταμάτης - Ήταν όλεθρος για μένα [μουσ. στ. Στ. Χατζόπουλος]
TTITLE7=Χατζόπουλος Σταμάτης - Το ταξίμι [μουσ. στ. Στ. Χατζόπουλος]
TTITLE8=Βαζαίος Λευτέρης - Ρώτα τ' άστρα [μουσ. στ. Λ. Βαζαίος]
TTITLE9=Βαζαίος Λευτέρης - Δεν απολογούμαι [μουσ. στ. Λ. Βαζαίος]
TTITLE10=Βαζαίος Λευτέρης - Να μ' αγαπάς [μουσ. στ. Λ. Βαζαίος]
TTITLE11=Βαζαίος Λευτέρης - Όταν η καρδιά αγαπάει [μουσ. στ. Λ. Βαζαίος]
TTITLE12=Βαζαίος Λευτέρης - Σ' αγαπώ κι ας είσαι δάκρυ [μουσ. στ. Λ. Βαζαίος]
TTITLE13=Βαζαίος Λευτέρης - Μιά γοργόνα [μουσ. στ. Λ. Βαζαίος]
TTITLE14=Βαζαίος Λευτέρης - Η πρώτη αγάπη [μουσ. στ. Λ. Βαζαίος]
TTITLE15=Βαζαίος Λευτέρης - Μάτια μου μαλαματένια [μουσ. στ. Λ. Βαζαίος]
TTITLE16=Βαζαίος Λευτέρης - Νά 'χα τα φιλιά σου [μουσ. στ. Λ. Βαζαίος]
TTITLE17=Βαζαίος Λευτέρης - Άγονη γραμμή [μουσ. στ. Λ. Βαζαίος]
TTITLE18=Βαζαίος Λευτέρης - Αέρα μου θαλασσινέ [μουσ. στ. Λ. Βαζαίος]
TTITLE19=Βαζαίος Λευτέρης - Παίζουμε βιολιά [μουσ. στ. Λ. Βαζαίος]
TTITLE20=Βαζαίος Λευτέρης - Γεια χαρά σας [μουσ. στ. Λ. Βαζαίος]
EXTD=
EXTT0=
EXTT1=
EXTT2=
EXTT3=
EXTT4=
EXTT5=
EXTT6=
EXTT7=
EXTT8=
EXTT9=
EXTT10=
EXTT11=
EXTT12=
EXTT13=
EXTT14=
EXTT15=
EXTT16=
EXTT17=
EXTT18=
EXTT19=
EXTT20=
PLAYORDER=
